<?xml version="1.0" standalone="no"?>
<!DOCTYPE svg PUBLIC "-//W3C//DTD SVG 20010904//EN"
 "http://www.w3.org/TR/2001/REC-SVG-20010904/DTD/svg10.dtd">
<svg version="1.0" xmlns="http://www.w3.org/2000/svg"
 width="512.000000pt" height="512.000000pt" viewBox="0 0 512.000000 512.000000"
 preserveAspectRatio="xMidYMid meet">

<g transform="translate(0.000000,512.000000) scale(0.100000,-0.100000)"
fill="#000000" stroke="none">
<path d="M1185 4806 c-43 -19 -75 -58 -86 -103 -5 -21 -9 -116 -9 -210 l0
-173 1353 0 c1298 0 1354 -1 1387 -19 19 -10 45 -36 57 -57 l23 -39 0 -1027 0
-1027 56 -18 56 -17 20 27 c94 129 304 17 243 -129 l-15 -37 84 -86 84 -87 31
15 31 15 0 207 0 208 -41 11 c-22 6 -42 16 -44 23 -2 7 -6 25 -9 40 -9 38 -47
55 -89 39 -29 -11 -34 -10 -59 16 -26 25 -27 30 -16 59 16 42 -1 80 -39 89
-49 10 -52 12 -62 51 -8 27 -8 39 0 42 24 8 49 42 49 67 0 15 -11 37 -28 52
-25 24 -27 31 -19 65 7 30 13 37 33 37 30 0 74 42 74 70 0 12 -5 30 -11 42 -9
17 -6 25 17 49 21 22 31 26 45 19 51 -28 109 1 109 53 0 24 6 29 45 39 l45 12
-2 797 c-3 788 -3 798 -24 825 -11 15 -33 37 -48 48 -27 21 -29 21 -1619 23
-1313 2 -1597 0 -1622 -11z"/>
<path d="M1044 3808 c-53 -26 -50 -105 5 -127 19 -8 147 -11 423 -9 373 3 397
4 417 22 28 25 28 77 0 102 -20 18 -43 19 -423 21 -264 1 -408 -2 -422 -9z"/>
<path d="M4230 1623 c-8 -3 -142 -132 -297 -286 l-283 -282 -118 118 c-99 99
-122 117 -148 117 -39 0 -64 -27 -64 -70 0 -30 16 -50 142 -176 138 -140 176
-167 210 -155 9 3 159 147 332 318 287 284 316 316 316 345 0 39 -7 51 -37 67
-23 12 -30 12 -53 4z"/>
</g>
</svg>
